<svg xmlns="http://www.w3.org/2000/svg" viewBox="0 0 263.1 189.1"><defs><style>.cls-1{fill:#282f39;}</style></defs><g id="Layer_2" data-name="Layer 2"><g id="Layer_1-2" data-name="Layer 1"><path class="cls-1" d="M257.8,26.5H5.3A5.34,5.34,0,0,1,0,21.2V5.3A5.34,5.34,0,0,1,5.3,0H257.8a5.34,5.34,0,0,1,5.3,5.3V21.2A5.34,5.34,0,0,1,257.8,26.5ZM10.5,16h242V10.7H10.5Z"/><rect class="cls-1" x="190.9" y="38.9" width="15.5" height="10.5"/><rect class="cls-1" x="190.9" y="83.6" width="15.5" height="10.5"/><path class="cls-1" d="M25.4,189.1H8.9a5.34,5.34,0,0,1-5.3-5.3V21.2a5.34,5.34,0,0,1,5.3-5.3H25.4a5.34,5.34,0,0,1,5.3,5.3V183.9A5.19,5.19,0,0,1,25.4,189.1ZM14.2,178.6h6V26.5h-6Z"/><path class="cls-1" d="M254.1,189.1H237.6a5.34,5.34,0,0,1-5.3-5.3V21.2a5.34,5.34,0,0,1,5.3-5.3h16.5a5.34,5.34,0,0,1,5.3,5.3V183.9A5.25,5.25,0,0,1,254.1,189.1Zm-11.2-10.5h6V26.5h-6Z"/><path class="cls-1" d="M237.6,71.6H159.7a5.34,5.34,0,0,1-5.3-5.3V21.2H165V61h72.7V71.6Z"/><path class="cls-1" d="M237.6,116.6H159.7a5.34,5.34,0,0,1-5.3-5.3V66.2H165V106h72.7v10.6Z"/><rect class="cls-1" x="154.4" y="66.3" width="10.5" height="45.1"/></g></g></svg>