<?xml version="1.0" encoding="utf-8"?>
<!-- Generator: Adobe Illustrator 24.1.2, SVG Export Plug-In . SVG Version: 6.00 Build 0)  -->
<svg version="1.1" id="Layer_1" xmlns="http://www.w3.org/2000/svg" xmlns:xlink="http://www.w3.org/1999/xlink" x="0px" y="0px"
	 viewBox="0 0 183.9 128.4" style="enable-background:new 0 0 183.9 128.4;" xml:space="preserve">
<style type="text/css">
	.st0{fill:#282F39;}
</style>
<path class="st0" d="M178.6,26.5H5.3c-2.9,0-5.3-2.4-5.3-5.3V5.3C0,2.4,2.4,0,5.3,0h173.3c2.9,0,5.3,2.4,5.3,5.3v15.9
	C183.9,24.1,181.6,26.5,178.6,26.5L178.6,26.5z M10.6,15.9h162.8v-5.3H10.6V15.9z"/>
<rect x="29.6" y="61" class="st0" width="128.8" height="10.5"/>
<rect x="82" y="40.1" class="st0" width="20" height="10.5"/>
<path class="st0" d="M25.5,128.4H9c-2.9,0-5.3-2.4-5.3-5.3V21.2c0-2.9,2.4-5.3,5.3-5.3h16.5c2.9,0,5.3,2.4,5.3,5.3v102
	C30.8,126.1,28.4,128.4,25.5,128.4L25.5,128.4z M14.3,117.9h6V26.5h-6L14.3,117.9z"/>
<path class="st0" d="M175,128.4h-16.5c-2.9,0-5.3-2.4-5.3-5.3V21.2c0-2.9,2.4-5.3,5.3-5.3H175c2.9,0,5.3,2.4,5.3,5.3v102
	C180.2,126.1,177.9,128.4,175,128.4z M163.7,117.9h6V26.5h-6V117.9z"/>
</svg>
