<svg xmlns="http://www.w3.org/2000/svg" viewBox="0 0 284.9 175.2"><defs><style>.cls-1{fill:#282f39;}</style></defs><g id="Layer_2" data-name="Layer 2"><g id="Layer_1-2" data-name="Layer 1"><path class="cls-1" d="M279.6,151.2H5.3A5.34,5.34,0,0,1,0,145.9V118.3A5.34,5.34,0,0,1,5.3,113H279.6a5.34,5.34,0,0,1,5.3,5.3v27.6A5.34,5.34,0,0,1,279.6,151.2Zm-269-10.6H274.4V123.5H10.6Z"/><path class="cls-1" d="M39.4,175.2H20.6a5.34,5.34,0,0,1-5.3-5.3v-24a5.34,5.34,0,0,1,5.3-5.3H39.4a5.34,5.34,0,0,1,5.3,5.3v24A5.4,5.4,0,0,1,39.4,175.2ZM25.8,164.6h8.3V151.1H25.8Z"/><path class="cls-1" d="M264.3,175.2H245.5a5.34,5.34,0,0,1-5.3-5.3v-24a5.34,5.34,0,0,1,5.3-5.3h18.8a5.34,5.34,0,0,1,5.3,5.3v24A5.34,5.34,0,0,1,264.3,175.2Zm-13.5-10.6h8.3V151.1h-8.3Z"/><path class="cls-1" d="M264.3,100.7H20.6a5.34,5.34,0,0,1-5.3-5.3V5.3A5.34,5.34,0,0,1,20.6,0H264.4a5.34,5.34,0,0,1,5.3,5.3V95.4A5.49,5.49,0,0,1,264.3,100.7ZM25.8,90.1H259V10.5H25.8Z"/><path class="cls-1" d="M131.8,100.7H43.7a5.34,5.34,0,0,1-5.3-5.3V50.3A5.34,5.34,0,0,1,43.7,45h88.1a5.34,5.34,0,0,1,5.3,5.3V95.4A5.27,5.27,0,0,1,131.8,100.7ZM49,90.1h77.6V55.6H49Z"/><path class="cls-1" d="M241.2,100.7H153.1a5.34,5.34,0,0,1-5.3-5.3V50.3a5.34,5.34,0,0,1,5.3-5.3h88.1a5.34,5.34,0,0,1,5.3,5.3V95.4A5.4,5.4,0,0,1,241.2,100.7ZM158.3,90.1h77.6V55.6H158.3Z"/><path class="cls-1" d="M279.6,123.5H5.3A5.34,5.34,0,0,1,0,118.2v-9A19.16,19.16,0,0,1,19.1,90.1H265.8a19.16,19.16,0,0,1,19.1,19.1v9A5.34,5.34,0,0,1,279.6,123.5ZM10.6,113H274.4v-3.7a8.6,8.6,0,0,0-8.6-8.6H19.1a8.6,8.6,0,0,0-8.6,8.6V113Z"/></g></g></svg>