<?xml version="1.0" encoding="utf-8"?>
<!-- Generator: Adobe Illustrator 24.1.2, SVG Export Plug-In . SVG Version: 6.00 Build 0)  -->
<svg version="1.1" id="Layer_1" xmlns="http://www.w3.org/2000/svg" xmlns:xlink="http://www.w3.org/1999/xlink" x="0px" y="0px"
	 viewBox="0 0 268.1 93.7" style="enable-background:new 0 0 268.1 93.7;" xml:space="preserve">
<style type="text/css">
	.st0{fill:#282F39;}
</style>
<path class="st0" d="M262.9,26.7H5.3c-2.9,0-5.3-2.4-5.3-5.3V5.3C0,2.4,2.4,0,5.3,0h257.5c2.9,0,5.3,2.4,5.3,5.3v16.2
	C268.1,24.3,265.8,26.7,262.9,26.7C263,26.7,262.9,26.7,262.9,26.7z M10.6,16.2h247v-5.6h-247C10.6,10.6,10.6,16.2,10.6,16.2z"/>
<path class="st0" d="M25.9,93.7H9.1c-2.9,0-5.3-2.4-5.3-5.3v-67c0-2.9,2.4-5.3,5.3-5.3h16.8c2.9,0,5.3,2.4,5.3,5.3v67
	C31.2,91.3,28.9,93.7,25.9,93.7L25.9,93.7z M14.4,83.2h6.3V26.7h-6.3C14.4,26.7,14.4,83.2,14.4,83.2z"/>
<path class="st0" d="M259.1,93.7h-16.8c-2.9,0-5.3-2.4-5.3-5.3v-67c0-2.9,2.4-5.3,5.3-5.3h16.8c2.9,0,5.3,2.4,5.3,5.3v67
	C264.4,91.3,262.1,93.7,259.1,93.7L259.1,93.7z M247.6,83.2h6.3V26.7h-6.3V83.2z"/>
</svg>
